<svg width="78" height="32" viewBox="0 0 78 32" fill="none" xmlns="http://www.w3.org/2000/svg">
<path d="M54.6281 1.46838C55.1687 0.55804 56.149 0 57.2077 0H72.2298C74.5555 0 75.9967 2.53184 74.8094 4.53162L59.3719 30.5316C58.8313 31.442 57.851 32 56.7923 32H41.7702C39.4445 32 38.0033 29.4682 39.1906 27.4684L54.6281 1.46838Z" fill="#955CFF"/>
<path d="M34.6281 1.46838C35.1687 0.55804 36.149 0 37.2077 0H46.2298C48.5555 0 49.9967 2.53184 48.8094 4.53162L33.3719 30.5316C32.8313 31.442 31.851 32 30.7923 32H21.7702C19.4445 32 18.0033 29.4682 19.1906 27.4684L34.6281 1.46838Z" fill="#FF9736"/>
<path d="M18.6281 1.46838C19.1687 0.55804 20.149 0 21.2077 0H26.2298C28.5555 0 29.9967 2.53184 28.8094 4.53162L13.3719 30.5316C12.8313 31.442 11.851 32 10.7923 32H5.77021C3.4445 32 2.00328 29.4682 3.19065 27.4684L18.6281 1.46838Z" fill="#75F1F1"/>
</svg>
