<svg width="142" height="34" viewBox="0 0 142 34" fill="none" xmlns="http://www.w3.org/2000/svg">
<g clip-path="url(#clip0_4_132)">
<path d="M42.8277 24.3168H52.7391V21.3314H46.3504V10.0865H42.8277V24.3168Z" fill="#050729"/>
<path d="M58.6112 22.3266C57.1982 22.3266 56.4618 21.0926 56.4618 19.2417C56.4618 17.3908 57.1982 16.1369 58.6112 16.1369C60.0243 16.1369 60.7806 17.3908 60.7806 19.2417C60.7806 21.0926 60.0243 22.3266 58.6112 22.3266ZM58.6311 24.6353C61.915 24.6353 64.0645 22.3067 64.0645 19.2417C64.0645 16.1767 61.915 13.8481 58.6311 13.8481C55.3671 13.8481 53.1779 16.1767 53.1779 19.2417C53.1779 22.3067 55.3671 24.6353 58.6311 24.6353Z" fill="#050729"/>
<path d="M69.7486 27.8395C71.2612 27.8395 72.5947 27.5012 73.4903 26.7051C74.3063 25.9687 74.8437 24.8541 74.8437 23.3216V14.1267H71.7389V15.2214H71.6991C71.102 14.3656 70.1865 13.8282 68.8331 13.8282C66.3055 13.8282 64.5541 15.9378 64.5541 18.9232C64.5541 22.0479 66.6837 23.7595 68.9724 23.7595C70.2064 23.7595 70.9826 23.2619 71.5797 22.5853H71.6593V23.6003C71.6593 24.8342 71.0821 25.5507 69.7088 25.5507C68.6341 25.5507 68.0967 25.093 67.9176 24.5556H64.773C65.0915 26.6852 66.9424 27.8395 69.7486 27.8395ZM69.7287 21.3513C68.5147 21.3513 67.7186 20.3562 67.7186 18.8237C67.7186 17.2713 68.5147 16.2762 69.7287 16.2762C71.0821 16.2762 71.7986 17.4305 71.7986 18.8038C71.7986 20.2368 71.1418 21.3513 69.7287 21.3513Z" fill="#050729"/>
<path d="M81.2277 22.3266C79.8146 22.3266 79.0782 21.0926 79.0782 19.2417C79.0782 17.3908 79.8146 16.1369 81.2277 16.1369C82.6408 16.1369 83.3967 17.3908 83.3967 19.2417C83.3967 21.0926 82.6408 22.3266 81.2277 22.3266ZM81.2476 24.6353C84.5312 24.6353 86.6806 22.3067 86.6806 19.2417C86.6806 16.1767 84.5312 13.8481 81.2476 13.8481C77.9836 13.8481 75.7943 16.1767 75.7943 19.2417C75.7943 22.3067 77.9836 24.6353 81.2476 24.6353Z" fill="#050729"/>
<path d="M87.6285 24.3168H90.8726V14.1267H87.6285V24.3168ZM87.6285 12.7137H90.8726V10.0865H87.6285V12.7137Z" fill="#050729"/>
<path d="M92.2799 27.6803H95.5239V23.2619H95.5638C96.2006 24.1177 97.136 24.6352 98.4496 24.6352C101.117 24.6352 102.888 22.5256 102.888 19.2217C102.888 16.1568 101.236 13.8282 98.5292 13.8282C97.136 13.8282 96.1409 14.4452 95.4443 15.3607H95.3846V14.1267H92.2799V27.6803ZM97.6137 22.1275C96.2205 22.1275 95.4244 20.9931 95.4244 19.3412C95.4244 17.6893 96.1409 16.4354 97.554 16.4354C98.9472 16.4354 99.6039 17.5897 99.6039 19.3412C99.6039 21.0727 98.8477 22.1275 97.6137 22.1275Z" fill="#050729"/>
<path d="M108.169 24.6352C110.836 24.6352 112.807 23.4809 112.807 21.2518C112.807 18.6446 110.697 18.1868 108.906 17.8883C107.612 17.6495 106.458 17.5499 106.458 16.8335C106.458 16.1966 107.075 15.898 107.871 15.898C108.767 15.898 109.384 16.1767 109.503 17.0922H112.488C112.329 15.082 110.777 13.8282 107.891 13.8282C105.483 13.8282 103.492 14.9427 103.492 17.0922C103.492 19.4805 105.383 19.9581 107.154 20.2567C108.508 20.4955 109.742 20.595 109.742 21.5105C109.742 22.1673 109.125 22.5256 108.15 22.5256C107.075 22.5256 106.398 22.028 106.279 21.013H103.214C103.313 23.2619 105.184 24.6352 108.169 24.6352Z" fill="#050729"/>
<path d="M117.213 24.6154C118.627 24.6154 119.522 24.0581 120.259 23.063H120.318V24.3168H123.423V14.1268H120.179V19.8189C120.179 21.0329 119.502 21.8688 118.388 21.8688C117.353 21.8688 116.855 21.2518 116.855 20.1373V14.1268H113.631V20.814C113.631 23.0829 114.865 24.6154 117.213 24.6154Z" fill="#050729"/>
<path d="M124.834 24.3168H128.079V18.6048C128.079 17.3907 128.676 16.5349 129.691 16.5349C130.666 16.5349 131.124 17.1718 131.124 18.2664V24.3168H134.368V18.6048C134.368 17.3907 134.945 16.5349 135.98 16.5349C136.955 16.5349 137.413 17.1718 137.413 18.2664V24.3168H140.657V17.6893C140.657 15.4005 139.503 13.8282 137.194 13.8282C135.88 13.8282 134.786 14.3855 133.99 15.6194H133.95C133.432 14.5248 132.417 13.8282 131.084 13.8282C129.611 13.8282 128.636 14.5248 127.999 15.5796H127.939V14.1267H124.834V24.3168Z" fill="#050729"/>
<path fill-rule="evenodd" clip-rule="evenodd" d="M16.9743 33.4388C26.1343 33.4388 33.5597 26.0132 33.5597 16.8534C33.5597 7.69358 26.1343 0.268066 16.9743 0.268066C7.8145 0.268066 0.388992 7.69358 0.388992 16.8534C0.388992 26.0132 7.8145 33.4388 16.9743 33.4388ZM19.5343 13.0824C20.948 11.6686 20.948 9.37638 19.5343 7.96256C18.1205 6.54876 15.8283 6.54876 14.4145 7.96256C13.0007 9.37638 13.0007 11.6686 14.4145 13.0824L16.9743 15.6423L19.5343 13.0824ZM20.7454 19.4133C22.1592 20.8272 24.4514 20.8272 25.8652 19.4133C27.279 17.9995 27.279 15.7073 25.8652 14.2935C24.4514 12.8798 22.1592 12.8798 20.7454 14.2935L18.1856 16.8535L20.7454 19.4133ZM19.5343 25.7443C20.948 24.3305 20.948 22.0383 19.5343 20.6245L16.9743 18.0646L14.4145 20.6245C13.0007 22.0383 13.0007 24.3305 14.4145 25.7443C15.8283 27.1581 18.1205 27.1581 19.5343 25.7443ZM8.08347 19.4133C6.6697 17.9995 6.6697 15.7073 8.08347 14.2935C9.49731 12.8798 11.7895 12.8798 13.2033 14.2935L15.7632 16.8535L13.2033 19.4133C11.7895 20.8272 9.49731 20.8272 8.08347 19.4133Z" fill="#050729"/>
</g>
<defs>
<clipPath id="clip0_4_132">
<rect width="140.976" height="34" fill="white" transform="translate(0.304871)"/>
</clipPath>
</defs>
</svg>
